<?xml version="1.0" standalone="no"?>
<!DOCTYPE svg PUBLIC "-//W3C//DTD SVG 20010904//EN"
 "http://www.w3.org/TR/2001/REC-SVG-20010904/DTD/svg10.dtd">
<svg version="1.0" xmlns="http://www.w3.org/2000/svg"
 width="2000.000000pt" height="1673.000000pt" viewBox="0 0 2000.000000 1673.000000"
 preserveAspectRatio="xMidYMid meet">

<g transform="translate(0.000000,1673.000000) scale(0.100000,-0.100000)"
fill="#000000" stroke="none">
<path d="M6054 15052 c-6 -4 -100 -221 -208 -482 l-197 -474 40 -166 c129
-535 199 -987 295 -1920 29 -279 95 -986 122 -1308 l7 -83 -59 37 c-224 142
-483 326 -654 463 -179 143 -350 295 -343 302 13 11 288 58 407 69 121 11 156
26 156 66 0 67 -61 96 -670 317 -468 170 -560 206 -741 293 -86 40 -159 74
-162 74 -3 0 -13 -7 -21 -16 -14 -14 -16 -75 -16 -528 0 -406 3 -516 13 -530
12 -17 19 -17 88 -5 41 7 86 9 100 6 16 -4 56 -47 116 -124 385 -496 803 -903
1305 -1270 121 -89 431 -296 530 -354 l44 -26 17 -259 c27 -387 84 -1302 107
-1699 27 -478 60 -1093 60 -1125 0 -23 -12 -35 -77 -75 -786 -489 -1361 -812
-1968 -1107 -431 -210 -763 -313 -1083 -337 -426 -32 -727 111 -889 424 -266
516 -189 1518 188 2425 88 211 262 556 279 552 8 -2 50 -6 94 -9 251 -18 453
101 575 337 76 145 162 443 196 671 18 128 19 161 3 177 -27 27 -49 13 -74
-45 -111 -252 -148 -305 -248 -352 -82 -39 -167 -54 -279 -49 -80 3 -103 8
-158 35 -162 80 -296 261 -350 472 -29 113 -40 284 -28 431 20 244 84 506 226
915 369 1069 472 1423 476 1639 2 76 -1 90 -16 100 -37 23 -60 -28 -186 -411
-137 -415 -180 -531 -346 -928 -338 -809 -475 -1239 -526 -1650 -17 -142 -15
-399 4 -520 52 -324 197 -580 406 -715 l23 -15 -55 -102 c-249 -456 -448
-1060 -536 -1633 -141 -914 -26 -1685 326 -2180 75 -104 242 -279 314 -328 64
-43 210 -115 297 -146 369 -132 824 -128 1155 10 76 32 476 240 732 382 421
232 989 569 1380 817 94 59 184 116 201 127 l31 18 23 -112 c117 -592 341
-1025 672 -1303 271 -228 428 -293 728 -302 137 -4 185 -2 285 15 386 67 668
224 1001 559 127 128 288 318 386 458 40 55 95 134 125 175 29 41 79 104 112
140 l60 65 1 -45 c2 -133 53 -371 111 -517 189 -476 563 -849 1064 -1059 196
-82 450 -144 590 -144 210 0 396 113 545 331 114 166 242 468 304 717 80 319
67 627 -40 922 -81 227 -245 465 -425 616 -43 37 -79 68 -79 70 0 4 353 158
545 237 99 41 308 123 465 182 689 259 1292 510 3230 1347 146 63 452 195 680
293 228 98 420 182 426 187 7 5 109 218 229 473 220 473 232 505 183 505 -11
0 -156 -58 -322 -129 -1234 -528 -2398 -943 -3096 -1102 -244 -55 -441 -42
-710 47 -330 109 -598 294 -999 688 -447 437 -764 895 -999 1441 -100 233
-121 325 -85 385 16 28 135 111 268 187 299 172 687 323 1020 397 682 151
1266 181 1864 95 250 -36 475 -88 789 -184 184 -55 248 -65 270 -43 42 42 -24
134 -283 393 -285 286 -501 447 -790 589 -163 80 -290 128 -459 171 -236 60
-326 70 -651 69 -271 0 -299 -2 -426 -27 -275 -54 -513 -134 -764 -257 -458
-224 -827 -565 -1094 -1010 -177 -294 -267 -615 -278 -987 -19 -638 191 -1157
737 -1819 206 -250 498 -542 760 -760 105 -87 121 -104 101 -104 -6 0 -185
-77 -397 -171 -213 -94 -453 -198 -533 -231 -679 -281 -898 -387 -1183 -574
-70 -46 -130 -84 -133 -84 -3 0 -5 8 -5 18 0 24 -34 60 -64 68 -69 17 -147
-57 -372 -354 -233 -307 -313 -402 -469 -557 -391 -392 -725 -571 -1150 -616
-182 -19 -371 4 -513 63 -146 61 -301 183 -402 317 -93 123 -206 371 -255 560
-8 33 -18 67 -21 74 -3 10 61 60 203 157 415 286 810 575 993 728 134 112 318
306 383 404 141 213 192 381 238 783 82 717 -56 1210 -446 1600 -225 225 -376
317 -1240 757 -258 132 -473 243 -477 246 -4 4 -25 246 -48 537 -147 1909
-320 3271 -515 4070 -43 173 -53 192 -91 167z m1122 -6181 c441 -225 605 -317
784 -439 260 -176 427 -348 509 -522 17 -36 31 -73 31 -83 0 -25 -69 -97 -185
-192 -326 -268 -1385 -1020 -1405 -999 -4 5 -13 128 -19 274 -18 404 -59 1214
-86 1703 -28 484 -26 457 -22 457 2 0 179 -89 393 -199z m3689 -3746 c247 -55
496 -155 661 -265 44 -29 130 -105 194 -169 125 -127 197 -232 237 -350 l22
-66 -37 -17 c-52 -24 -197 -23 -320 2 -266 54 -498 165 -705 338 -158 131
-296 322 -381 526 l-16 39 112 -6 c66 -3 163 -16 233 -32z"/>
<path d="M11630 13991 c-88 -28 -142 -85 -206 -216 -94 -193 -147 -453 -270
-1312 -16 -106 -30 -191 -31 -189 -2 2 -20 74 -39 161 -163 730 -486 1203
-882 1291 -72 16 -75 16 -100 -3 -15 -11 -62 -85 -107 -169 -99 -185 -106
-227 -56 -329 37 -75 93 -128 189 -178 57 -30 223 -87 253 -87 5 0 25 23 46
50 20 28 40 50 44 50 13 0 133 -194 189 -305 113 -221 214 -510 291 -829 28
-116 54 -218 59 -226 14 -29 46 -22 100 23 60 50 69 72 119 292 34 148 57 294
101 645 71 561 119 752 211 835 30 27 48 35 77 35 55 0 143 -48 239 -130 45
-38 89 -70 97 -70 18 0 38 38 96 183 49 125 51 113 -38 233 -138 184 -283 277
-382 245z"/>
<path d="M8416 13701 c-3 -4 -39 -95 -81 -201 l-75 -193 73 -76 c212 -223 340
-425 417 -662 47 -143 64 -254 64 -424 0 -188 -15 -267 -134 -720 -145 -551
-181 -747 -181 -1005 -1 -197 24 -328 87 -452 46 -90 129 -163 216 -189 55
-16 154 -12 201 9 158 72 254 339 245 684 -4 155 -11 189 -44 202 -32 12 -44
-17 -58 -145 -15 -132 -30 -181 -72 -237 -67 -88 -154 -93 -265 -17 -88 62
-145 250 -135 445 10 179 43 336 156 730 132 460 160 625 160 930 0 208 -10
304 -50 465 -71 285 -189 504 -423 783 -65 77 -88 94 -101 73z"/>
<path d="M5100 8299 c-63 -5 -179 -18 -258 -29 -295 -42 -454 -121 -557 -276
-51 -77 -355 -670 -355 -693 0 -68 40 -67 153 5 49 31 110 65 135 74 56 21
212 45 407 61 172 15 710 16 744 2 23 -9 18 -15 -105 -125 -155 -139 -256
-222 -503 -412 -207 -160 -241 -189 -241 -208 0 -19 12 -33 33 -41 59 -22 675
262 865 398 128 92 196 170 253 290 77 162 299 736 299 773 0 95 -82 155 -250
182 -76 12 -453 11 -620 -1z"/>
<path d="M17340 6869 c-344 -132 -1163 -445 -1820 -695 -1646 -629 -1598 -609
-1672 -676 -34 -30 -47 -59 -143 -322 -81 -225 -102 -293 -94 -307 15 -28 33
-23 84 21 84 73 111 85 805 350 256 98 660 253 899 344 238 91 437 166 442
166 19 0 -70 -265 -207 -613 -228 -579 -274 -749 -274 -1015 0 -209 40 -359
133 -499 83 -124 175 -191 293 -212 192 -35 369 83 478 321 64 139 120 354
147 566 10 82 10 95 -4 109 -28 28 -43 7 -72 -99 -52 -189 -146 -343 -238
-387 -99 -48 -236 -17 -336 75 -96 88 -131 191 -131 378 0 201 23 312 155 736
90 291 130 451 145 580 6 52 14 98 18 101 4 4 423 165 932 358 509 194 930
357 936 364 18 20 205 549 202 571 -2 14 -11 22 -28 23 -14 1 -306 -106 -650
-238z"/>
<path d="M5785 4207 c-85 -22 -147 -58 -218 -126 -158 -152 -270 -378 -338
-686 -33 -148 -37 -213 -14 -221 26 -10 41 13 75 108 56 162 131 284 223 364
136 118 356 103 492 -33 92 -92 128 -207 128 -408 0 -152 -20 -281 -70 -445
-79 -263 -180 -479 -417 -889 -83 -144 -96 -201 -46 -201 61 0 379 484 541
825 117 246 209 518 243 714 32 189 17 460 -35 614 -60 176 -178 323 -294 366
-73 28 -199 36 -270 18z"/>
</g>
</svg>
